<svg xmlns:xlink="http://www.w3.org/1999/xlink" width="141.262ex" height="2.843ex" style="font-size: 15px; vertical-align: -0.838ex; margin-left: -0.089ex;" viewBox="-38.5 -863.1 60820.8 1223.9" role="img" focusable="false" xmlns="http://www.w3.org/2000/svg">
<defs>
<path stroke-width="1" id="E1-MJMATHI-70" d="M23 287Q24 290 25 295T30 317T40 348T55 381T75 411T101 433T134 442Q209 442 230 378L240 387Q302 442 358 442Q423 442 460 395T497 281Q497 173 421 82T249 -10Q227 -10 210 -4Q199 1 187 11T168 28L161 36Q160 35 139 -51T118 -138Q118 -144 126 -145T163 -148H188Q194 -155 194 -157T191 -175Q188 -187 185 -190T172 -194Q170 -194 161 -194T127 -193T65 -192Q-5 -192 -24 -194H-32Q-39 -187 -39 -183Q-37 -156 -26 -148H-6Q28 -147 33 -136Q36 -130 94 103T155 350Q156 355 156 364Q156 405 131 405Q109 405 94 377T71 316T59 280Q57 278 43 278H29Q23 284 23 287ZM178 102Q200 26 252 26Q282 26 310 49T356 107Q374 141 392 215T411 325V331Q411 405 350 405Q339 405 328 402T306 393T286 380T269 365T254 350T243 336T235 326L232 322Q232 321 229 308T218 264T204 212Q178 106 178 102Z"></path>
<path stroke-width="1" id="E1-MJMAIN-28" d="M94 250Q94 319 104 381T127 488T164 576T202 643T244 695T277 729T302 750H315H319Q333 750 333 741Q333 738 316 720T275 667T226 581T184 443T167 250T184 58T225 -81T274 -167T316 -220T333 -241Q333 -250 318 -250H315H302L274 -226Q180 -141 137 -14T94 250Z"></path>
<path stroke-width="1" id="E1-MJMATHI-77" d="M580 385Q580 406 599 424T641 443Q659 443 674 425T690 368Q690 339 671 253Q656 197 644 161T609 80T554 12T482 -11Q438 -11 404 5T355 48Q354 47 352 44Q311 -11 252 -11Q226 -11 202 -5T155 14T118 53T104 116Q104 170 138 262T173 379Q173 380 173 381Q173 390 173 393T169 400T158 404H154Q131 404 112 385T82 344T65 302T57 280Q55 278 41 278H27Q21 284 21 287Q21 293 29 315T52 366T96 418T161 441Q204 441 227 416T250 358Q250 340 217 250T184 111Q184 65 205 46T258 26Q301 26 334 87L339 96V119Q339 122 339 128T340 136T341 143T342 152T345 165T348 182T354 206T362 238T373 281Q402 395 406 404Q419 431 449 431Q468 431 475 421T483 402Q483 389 454 274T422 142Q420 131 420 107V100Q420 85 423 71T442 42T487 26Q558 26 600 148Q609 171 620 213T632 273Q632 306 619 325T593 357T580 385Z"></path>
<path stroke-width="1" id="E1-MJMATHI-69" d="M184 600Q184 624 203 642T247 661Q265 661 277 649T290 619Q290 596 270 577T226 557Q211 557 198 567T184 600ZM21 287Q21 295 30 318T54 369T98 420T158 442Q197 442 223 419T250 357Q250 340 236 301T196 196T154 83Q149 61 149 51Q149 26 166 26Q175 26 185 29T208 43T235 78T260 137Q263 149 265 151T282 153Q302 153 302 143Q302 135 293 112T268 61T223 11T161 -11Q129 -11 102 10T74 74Q74 91 79 106T122 220Q160 321 166 341T173 380Q173 404 156 404H154Q124 404 99 371T61 287Q60 286 59 284T58 281T56 279T53 278T49 278T41 278H27Q21 284 21 287Z"></path>
<path stroke-width="1" id="E1-MJMAIN-7C" d="M139 -249H137Q125 -249 119 -235V251L120 737Q130 750 139 750Q152 750 159 735V-235Q151 -249 141 -249H139Z"></path>
<path stroke-width="1" id="E1-MJMAIN-2212" d="M84 237T84 250T98 270H679Q694 262 694 250T679 230H98Q84 237 84 250Z"></path>
<path stroke-width="1" id="E1-MJMAIN-31" d="M213 578L200 573Q186 568 160 563T102 556H83V602H102Q149 604 189 617T245 641T273 663Q275 666 285 666Q294 666 302 660V361L303 61Q310 54 315 52T339 48T401 46H427V0H416Q395 3 257 3Q121 3 100 0H88V46H114Q136 46 152 46T177 47T193 50T201 52T207 57T213 61V578Z"></path>
<path stroke-width="1" id="E1-MJMAIN-29" d="M60 749L64 750Q69 750 74 750H86L114 726Q208 641 251 514T294 250Q294 182 284 119T261 12T224 -76T186 -143T145 -194T113 -227T90 -246Q87 -249 86 -250H74Q66 -250 63 -250T58 -247T55 -238Q56 -237 66 -225Q221 -64 221 250T66 725Q56 737 55 738Q55 746 60 749Z"></path>
<path stroke-width="1" id="E1-MJMAIN-3D" d="M56 347Q56 360 70 367H707Q722 359 722 347Q722 336 708 328L390 327H72Q56 332 56 347ZM56 153Q56 168 72 173H708Q722 163 722 153Q722 140 707 133H70Q56 140 56 153Z"></path>
<path stroke-width="1" id="E1-MJMAIN-2C" d="M78 35T78 60T94 103T137 121Q165 121 187 96T210 8Q210 -27 201 -60T180 -117T154 -158T130 -185T117 -194Q113 -194 104 -185T95 -172Q95 -168 106 -156T131 -126T157 -76T173 -3V9L172 8Q170 7 167 6T161 3T152 1T140 0Q113 0 96 17Z"></path>
<path stroke-width="1" id="E1-MJMAIN-2F" d="M423 750Q432 750 438 744T444 730Q444 725 271 248T92 -240Q85 -250 75 -250Q68 -250 62 -245T56 -231Q56 -221 230 257T407 740Q411 750 423 750Z"></path>
<path stroke-width="1" id="E1-MJMATHI-63" d="M34 159Q34 268 120 355T306 442Q362 442 394 418T427 355Q427 326 408 306T360 285Q341 285 330 295T319 325T330 359T352 380T366 386H367Q367 388 361 392T340 400T306 404Q276 404 249 390Q228 381 206 359Q162 315 142 235T121 119Q121 73 147 50Q169 26 205 26H209Q321 26 394 111Q403 121 406 121Q410 121 419 112T429 98T420 83T391 55T346 25T282 0T202 -11Q127 -11 81 37T34 159Z"></path>
<path stroke-width="1" id="E1-MJMATHI-6F" d="M201 -11Q126 -11 80 38T34 156Q34 221 64 279T146 380Q222 441 301 441Q333 441 341 440Q354 437 367 433T402 417T438 387T464 338T476 268Q476 161 390 75T201 -11ZM121 120Q121 70 147 48T206 26Q250 26 289 58T351 142Q360 163 374 216T388 308Q388 352 370 375Q346 405 306 405Q243 405 195 347Q158 303 140 230T121 120Z"></path>
<path stroke-width="1" id="E1-MJMATHI-75" d="M21 287Q21 295 30 318T55 370T99 420T158 442Q204 442 227 417T250 358Q250 340 216 246T182 105Q182 62 196 45T238 27T291 44T328 78L339 95Q341 99 377 247Q407 367 413 387T427 416Q444 431 463 431Q480 431 488 421T496 402L420 84Q419 79 419 68Q419 43 426 35T447 26Q469 29 482 57T512 145Q514 153 532 153Q551 153 551 144Q550 139 549 130T540 98T523 55T498 17T462 -8Q454 -10 438 -10Q372 -10 347 46Q345 45 336 36T318 21T296 6T267 -6T233 -11Q189 -11 155 7Q103 38 103 113Q103 170 138 262T173 379Q173 380 173 381Q173 390 173 393T169 400T158 404H154Q131 404 112 385T82 344T65 302T57 280Q55 278 41 278H27Q21 284 21 287Z"></path>
<path stroke-width="1" id="E1-MJMATHI-6E" d="M21 287Q22 293 24 303T36 341T56 388T89 425T135 442Q171 442 195 424T225 390T231 369Q231 367 232 367L243 378Q304 442 382 442Q436 442 469 415T503 336T465 179T427 52Q427 26 444 26Q450 26 453 27Q482 32 505 65T540 145Q542 153 560 153Q580 153 580 145Q580 144 576 130Q568 101 554 73T508 17T439 -10Q392 -10 371 17T350 73Q350 92 386 193T423 345Q423 404 379 404H374Q288 404 229 303L222 291L189 157Q156 26 151 16Q138 -11 108 -11Q95 -11 87 -5T76 7T74 17Q74 30 112 180T152 343Q153 348 153 366Q153 405 129 405Q91 405 66 305Q60 285 60 284Q58 278 41 278H27Q21 284 21 287Z"></path>
<path stroke-width="1" id="E1-MJMATHI-74" d="M26 385Q19 392 19 395Q19 399 22 411T27 425Q29 430 36 430T87 431H140L159 511Q162 522 166 540T173 566T179 586T187 603T197 615T211 624T229 626Q247 625 254 615T261 596Q261 589 252 549T232 470L222 433Q222 431 272 431H323Q330 424 330 420Q330 398 317 385H210L174 240Q135 80 135 68Q135 26 162 26Q197 26 230 60T283 144Q285 150 288 151T303 153H307Q322 153 322 145Q322 142 319 133Q314 117 301 95T267 48T216 6T155 -11Q125 -11 98 4T59 56Q57 64 57 83V101L92 241Q127 382 128 383Q128 385 77 385H26Z"></path>
<path stroke-width="1" id="E1-MJMATHI-41" d="M208 74Q208 50 254 46Q272 46 272 35Q272 34 270 22Q267 8 264 4T251 0Q249 0 239 0T205 1T141 2Q70 2 50 0H42Q35 7 35 11Q37 38 48 46H62Q132 49 164 96Q170 102 345 401T523 704Q530 716 547 716H555H572Q578 707 578 706L606 383Q634 60 636 57Q641 46 701 46Q726 46 726 36Q726 34 723 22Q720 7 718 4T704 0Q701 0 690 0T651 1T578 2Q484 2 455 0H443Q437 6 437 9T439 27Q443 40 445 43L449 46H469Q523 49 533 63L521 213H283L249 155Q208 86 208 74ZM516 260Q516 271 504 416T490 562L463 519Q447 492 400 412L310 260L413 259Q516 259 516 260Z"></path>
<path stroke-width="1" id="E1-MJMATHI-4C" d="M228 637Q194 637 192 641Q191 643 191 649Q191 673 202 682Q204 683 217 683Q271 680 344 680Q485 680 506 683H518Q524 677 524 674T522 656Q517 641 513 637H475Q406 636 394 628Q387 624 380 600T313 336Q297 271 279 198T252 88L243 52Q243 48 252 48T311 46H328Q360 46 379 47T428 54T478 72T522 106T564 161Q580 191 594 228T611 270Q616 273 628 273H641Q647 264 647 262T627 203T583 83T557 9Q555 4 553 3T537 0T494 -1Q483 -1 418 -1T294 0H116Q32 0 32 10Q32 17 34 24Q39 43 44 45Q48 46 59 46H65Q92 46 125 49Q139 52 144 61Q147 65 216 339T285 628Q285 635 228 637Z"></path>
<path stroke-width="1" id="E1-MJMATHI-72" d="M21 287Q22 290 23 295T28 317T38 348T53 381T73 411T99 433T132 442Q161 442 183 430T214 408T225 388Q227 382 228 382T236 389Q284 441 347 441H350Q398 441 422 400Q430 381 430 363Q430 333 417 315T391 292T366 288Q346 288 334 299T322 328Q322 376 378 392Q356 405 342 405Q286 405 239 331Q229 315 224 298T190 165Q156 25 151 16Q138 -11 108 -11Q95 -11 87 -5T76 7T74 17Q74 30 114 189T154 366Q154 405 128 405Q107 405 92 377T68 316T57 280Q55 278 41 278H27Q21 284 21 287Z"></path>
<path stroke-width="1" id="E1-MJMATHI-64" d="M366 683Q367 683 438 688T511 694Q523 694 523 686Q523 679 450 384T375 83T374 68Q374 26 402 26Q411 27 422 35Q443 55 463 131Q469 151 473 152Q475 153 483 153H487H491Q506 153 506 145Q506 140 503 129Q490 79 473 48T445 8T417 -8Q409 -10 393 -10Q359 -10 336 5T306 36L300 51Q299 52 296 50Q294 48 292 46Q233 -10 172 -10Q117 -10 75 30T33 157Q33 205 53 255T101 341Q148 398 195 420T280 442Q336 442 364 400Q369 394 369 396Q370 400 396 505T424 616Q424 629 417 632T378 637H357Q351 643 351 645T353 664Q358 683 366 683ZM352 326Q329 405 277 405Q242 405 210 374T160 293Q131 214 119 129Q119 126 119 118T118 106Q118 61 136 44T179 26Q233 26 290 98L298 109L352 326Z"></path>
</defs>
<g stroke="currentColor" fill="currentColor" stroke-width="0" transform="matrix(1 0 0 -1 0 0)">
 <use xlink:href="#E1-MJMATHI-70" x="0" y="0"></use>
 <use xlink:href="#E1-MJMAIN-28" x="503" y="0"></use>
<g transform="translate(893,0)">
 <use xlink:href="#E1-MJMATHI-77" x="0" y="0"></use>
 <use transform="scale(0.707)" xlink:href="#E1-MJMATHI-69" x="1013" y="-213"></use>
</g>
 <use xlink:href="#E1-MJMAIN-7C" x="1953" y="0"></use>
 <use xlink:href="#E1-MJMATHI-70" x="2232" y="0"></use>
 <use xlink:href="#E1-MJMAIN-28" x="2735" y="0"></use>
<g transform="translate(3125,0)">
 <use xlink:href="#E1-MJMATHI-77" x="0" y="0"></use>
<g transform="translate(716,-150)">
 <use transform="scale(0.707)" xlink:href="#E1-MJMATHI-69" x="0" y="0"></use>
 <use transform="scale(0.707)" xlink:href="#E1-MJMAIN-2212" x="345" y="0"></use>
 <use transform="scale(0.707)" xlink:href="#E1-MJMAIN-31" x="1124" y="0"></use>
</g>
</g>
 <use xlink:href="#E1-MJMAIN-29" x="5090" y="0"></use>
 <use xlink:href="#E1-MJMAIN-29" x="5480" y="0"></use>
 <use xlink:href="#E1-MJMAIN-3D" x="6147" y="0"></use>
 <use xlink:href="#E1-MJMATHI-70" x="7203" y="0"></use>
 <use xlink:href="#E1-MJMAIN-28" x="7707" y="0"></use>
<g transform="translate(8096,0)">
 <use xlink:href="#E1-MJMATHI-77" x="0" y="0"></use>
 <use transform="scale(0.707)" xlink:href="#E1-MJMATHI-69" x="1013" y="-213"></use>
</g>
 <use xlink:href="#E1-MJMAIN-2C" x="9157" y="0"></use>
<g transform="translate(9602,0)">
 <use xlink:href="#E1-MJMATHI-77" x="0" y="0"></use>
<g transform="translate(716,-150)">
 <use transform="scale(0.707)" xlink:href="#E1-MJMATHI-69" x="0" y="0"></use>
 <use transform="scale(0.707)" xlink:href="#E1-MJMAIN-2212" x="345" y="0"></use>
 <use transform="scale(0.707)" xlink:href="#E1-MJMAIN-31" x="1124" y="0"></use>
</g>
</g>
 <use xlink:href="#E1-MJMAIN-29" x="11567" y="0"></use>
 <use xlink:href="#E1-MJMAIN-2F" x="11957" y="0"></use>
 <use xlink:href="#E1-MJMATHI-70" x="12457" y="0"></use>
 <use xlink:href="#E1-MJMAIN-28" x="12961" y="0"></use>
<g transform="translate(13350,0)">
 <use xlink:href="#E1-MJMATHI-77" x="0" y="0"></use>
<g transform="translate(716,-150)">
 <use transform="scale(0.707)" xlink:href="#E1-MJMATHI-69" x="0" y="0"></use>
 <use transform="scale(0.707)" xlink:href="#E1-MJMAIN-2212" x="345" y="0"></use>
 <use transform="scale(0.707)" xlink:href="#E1-MJMAIN-31" x="1124" y="0"></use>
</g>
</g>
 <use xlink:href="#E1-MJMAIN-29" x="15315" y="0"></use>
 <use xlink:href="#E1-MJMAIN-3D" x="15983" y="0"></use>
 <use xlink:href="#E1-MJMAIN-28" x="17039" y="0"></use>
 <use xlink:href="#E1-MJMATHI-63" x="17428" y="0"></use>
 <use xlink:href="#E1-MJMATHI-6F" x="17862" y="0"></use>
 <use xlink:href="#E1-MJMATHI-75" x="18347" y="0"></use>
 <use xlink:href="#E1-MJMATHI-6E" x="18920" y="0"></use>
 <use xlink:href="#E1-MJMATHI-74" x="19520" y="0"></use>
 <use xlink:href="#E1-MJMAIN-28" x="19882" y="0"></use>
<g transform="translate(20271,0)">
 <use xlink:href="#E1-MJMATHI-77" x="0" y="0"></use>
 <use transform="scale(0.707)" xlink:href="#E1-MJMATHI-69" x="1013" y="-213"></use>
</g>
 <use xlink:href="#E1-MJMAIN-2C" x="21332" y="0"></use>
<g transform="translate(21777,0)">
 <use xlink:href="#E1-MJMATHI-77" x="0" y="0"></use>
<g transform="translate(716,-150)">
 <use transform="scale(0.707)" xlink:href="#E1-MJMATHI-69" x="0" y="0"></use>
 <use transform="scale(0.707)" xlink:href="#E1-MJMAIN-2212" x="345" y="0"></use>
 <use transform="scale(0.707)" xlink:href="#E1-MJMAIN-31" x="1124" y="0"></use>
</g>
</g>
 <use xlink:href="#E1-MJMAIN-29" x="23743" y="0"></use>
 <use xlink:href="#E1-MJMAIN-2F" x="24132" y="0"></use>
 <use xlink:href="#E1-MJMATHI-63" x="24633" y="0"></use>
 <use xlink:href="#E1-MJMATHI-6F" x="25066" y="0"></use>
 <use xlink:href="#E1-MJMATHI-75" x="25552" y="0"></use>
 <use xlink:href="#E1-MJMATHI-6E" x="26124" y="0"></use>
 <use xlink:href="#E1-MJMATHI-74" x="26725" y="0"></use>
 <use xlink:href="#E1-MJMAIN-28" x="27086" y="0"></use>
 <use xlink:href="#E1-MJMATHI-41" x="27476" y="0"></use>
 <use xlink:href="#E1-MJMATHI-4C" x="28226" y="0"></use>
 <use xlink:href="#E1-MJMATHI-4C" x="28908" y="0"></use>
 <use xlink:href="#E1-MJMATHI-77" x="29589" y="0"></use>
 <use xlink:href="#E1-MJMATHI-6F" x="30306" y="0"></use>
 <use xlink:href="#E1-MJMATHI-72" x="30791" y="0"></use>
 <use xlink:href="#E1-MJMATHI-64" x="31243" y="0"></use>
 <use xlink:href="#E1-MJMAIN-29" x="31766" y="0"></use>
 <use xlink:href="#E1-MJMAIN-29" x="32156" y="0"></use>
 <use xlink:href="#E1-MJMAIN-2F" x="32545" y="0"></use>
 <use xlink:href="#E1-MJMAIN-28" x="33046" y="0"></use>
 <use xlink:href="#E1-MJMATHI-63" x="33435" y="0"></use>
 <use xlink:href="#E1-MJMATHI-6F" x="33869" y="0"></use>
 <use xlink:href="#E1-MJMATHI-75" x="34354" y="0"></use>
 <use xlink:href="#E1-MJMATHI-6E" x="34927" y="0"></use>
 <use xlink:href="#E1-MJMATHI-74" x="35527" y="0"></use>
 <use xlink:href="#E1-MJMAIN-28" x="35889" y="0"></use>
<g transform="translate(36278,0)">
 <use xlink:href="#E1-MJMATHI-77" x="0" y="0"></use>
<g transform="translate(716,-150)">
 <use transform="scale(0.707)" xlink:href="#E1-MJMATHI-69" x="0" y="0"></use>
 <use transform="scale(0.707)" xlink:href="#E1-MJMAIN-2212" x="345" y="0"></use>
 <use transform="scale(0.707)" xlink:href="#E1-MJMAIN-31" x="1124" y="0"></use>
</g>
</g>
 <use xlink:href="#E1-MJMAIN-29" x="38243" y="0"></use>
 <use xlink:href="#E1-MJMAIN-2F" x="38633" y="0"></use>
 <use xlink:href="#E1-MJMATHI-63" x="39133" y="0"></use>
 <use xlink:href="#E1-MJMATHI-6F" x="39567" y="0"></use>
 <use xlink:href="#E1-MJMATHI-75" x="40052" y="0"></use>
 <use xlink:href="#E1-MJMATHI-6E" x="40625" y="0"></use>
 <use xlink:href="#E1-MJMATHI-74" x="41225" y="0"></use>
 <use xlink:href="#E1-MJMAIN-28" x="41587" y="0"></use>
 <use xlink:href="#E1-MJMATHI-41" x="41976" y="0"></use>
 <use xlink:href="#E1-MJMATHI-4C" x="42727" y="0"></use>
 <use xlink:href="#E1-MJMATHI-4C" x="43408" y="0"></use>
 <use xlink:href="#E1-MJMATHI-77" x="44090" y="0"></use>
 <use xlink:href="#E1-MJMATHI-6F" x="44806" y="0"></use>
 <use xlink:href="#E1-MJMATHI-72" x="45292" y="0"></use>
 <use xlink:href="#E1-MJMATHI-64" x="45743" y="0"></use>
 <use xlink:href="#E1-MJMAIN-29" x="46267" y="0"></use>
 <use xlink:href="#E1-MJMAIN-29" x="46656" y="0"></use>
 <use xlink:href="#E1-MJMAIN-3D" x="47324" y="0"></use>
 <use xlink:href="#E1-MJMATHI-63" x="48380" y="0"></use>
 <use xlink:href="#E1-MJMATHI-6F" x="48813" y="0"></use>
 <use xlink:href="#E1-MJMATHI-75" x="49299" y="0"></use>
 <use xlink:href="#E1-MJMATHI-6E" x="49871" y="0"></use>
 <use xlink:href="#E1-MJMATHI-74" x="50472" y="0"></use>
 <use xlink:href="#E1-MJMAIN-28" x="50833" y="0"></use>
<g transform="translate(51223,0)">
 <use xlink:href="#E1-MJMATHI-77" x="0" y="0"></use>
 <use transform="scale(0.707)" xlink:href="#E1-MJMATHI-69" x="1013" y="-213"></use>
</g>
 <use xlink:href="#E1-MJMAIN-2C" x="52284" y="0"></use>
<g transform="translate(52729,0)">
 <use xlink:href="#E1-MJMATHI-77" x="0" y="0"></use>
<g transform="translate(716,-150)">
 <use transform="scale(0.707)" xlink:href="#E1-MJMATHI-69" x="0" y="0"></use>
 <use transform="scale(0.707)" xlink:href="#E1-MJMAIN-2212" x="345" y="0"></use>
 <use transform="scale(0.707)" xlink:href="#E1-MJMAIN-31" x="1124" y="0"></use>
</g>
</g>
 <use xlink:href="#E1-MJMAIN-29" x="54694" y="0"></use>
 <use xlink:href="#E1-MJMAIN-2F" x="55084" y="0"></use>
 <use xlink:href="#E1-MJMATHI-63" x="55584" y="0"></use>
 <use xlink:href="#E1-MJMATHI-6F" x="56018" y="0"></use>
 <use xlink:href="#E1-MJMATHI-75" x="56503" y="0"></use>
 <use xlink:href="#E1-MJMATHI-6E" x="57076" y="0"></use>
 <use xlink:href="#E1-MJMATHI-74" x="57676" y="0"></use>
 <use xlink:href="#E1-MJMAIN-28" x="58038" y="0"></use>
<g transform="translate(58427,0)">
 <use xlink:href="#E1-MJMATHI-77" x="0" y="0"></use>
<g transform="translate(716,-150)">
 <use transform="scale(0.707)" xlink:href="#E1-MJMATHI-69" x="0" y="0"></use>
 <use transform="scale(0.707)" xlink:href="#E1-MJMAIN-2212" x="345" y="0"></use>
 <use transform="scale(0.707)" xlink:href="#E1-MJMAIN-31" x="1124" y="0"></use>
</g>
</g>
 <use xlink:href="#E1-MJMAIN-29" x="60392" y="0"></use>
</g>
</svg>